<?xml version="1.0" encoding="UTF-8"?>
<svg width="40px" height="40px" viewBox="0 0 40 40" version="1.1" xmlns="http://www.w3.org/2000/svg" xmlns:xlink="http://www.w3.org/1999/xlink">
    <!-- Generator: Sketch 44.1 (41455) - http://www.bohemiancoding.com/sketch -->
    <title>icon/icon-hamburger-white</title>
    <desc>Created with Sketch.</desc>
    <defs></defs>
    <g id="Symbols" stroke="none" stroke-width="1" fill="none" fill-rule="evenodd">
        <g id="icon/icon-hamburger-white" fill="#FFFFFF">
            <path d="M40.0001401,34.2777778 C40.0001401,33.3271111 39.2154115,32.5555556 38.2485137,32.5555556 L1.75162639,32.5555556 C0.784728621,32.5555556 0,33.3271111 0,34.2777778 C0,35.2284444 0.784728621,36 1.75162639,36 L38.2485137,36 C39.2154115,36 40.0001401,35.2284444 40.0001401,34.2777778 M40.0001401,20.5 C40.0001401,19.5493333 39.2154115,18.7777778 38.2485137,18.7777778 L1.75162639,18.7777778 C0.784728621,18.7777778 0,19.5493333 0,20.5 C0,21.4506667 0.784728621,22.2222222 1.75162639,22.2222222 L38.2485137,22.2222222 C39.2154115,22.2222222 40.0001401,21.4506667 40.0001401,20.5 M38.2485137,8.44444444 L1.75162639,8.44444444 C0.784728621,8.44444444 0,7.67288889 0,6.72222222 C0,5.77155556 0.784728621,5 1.75162639,5 L38.2485137,5 C39.2154115,5 40.0001401,5.77155556 40.0001401,6.72222222 C40.0001401,7.67288889 39.2154115,8.44444444 38.2485137,8.44444444" id="Page-1"></path>
        </g>
    </g>
</svg>