<?xml version="1.0" encoding="utf-8"?>
<!-- Generator: Adobe Illustrator 21.1.0, SVG Export Plug-In . SVG Version: 6.00 Build 0)  -->
<svg version="1.1" xmlns="http://www.w3.org/2000/svg" xmlns:xlink="http://www.w3.org/1999/xlink" x="0px" y="0px"
	 viewBox="0 0 40 40" style="enable-background:new 0 0 40 40;" xml:space="preserve">
<style type="text/css">
	.st0{fill:#FFFFFF;}
</style>
<g id="Layer_2">
</g>
<g id="Layer_1">
	<path id="Page-1" class="st0" d="M37.7,20.6c0-0.8-0.7-1.5-1.5-1.5H3.9c-0.9,0-1.5,0.7-1.5,1.5c0,0.8,0.7,1.5,1.5,1.5h32.2
		C37,22.1,37.7,21.4,37.7,20.6 M37.7,11c0-0.8-0.7-1.5-1.5-1.5H3.9C3,9.5,2.3,10.2,2.3,11s0.7,1.5,1.5,1.5h32.2
		C37,12.6,37.7,11.9,37.7,11 M36.1,3H3.9C3,3,2.3,2.4,2.3,1.5S3,0,3.9,0h32.2c0.9,0,1.5,0.7,1.5,1.5S37,3,36.1,3"/>
	<g>
		<path class="st0" d="M3.5,29h1.2l1.8,4.8h0L8.3,29h1.2v10.8H8.5V31h0l-1.7,4.5H6.1L4.5,31h0v8.8H3.5V29z"/>
		<path class="st0" d="M13.9,29h4v0.9h-3v3.8h2.4v0.9h-2.4V39h3v0.9h-4.1V29z"/>
		<path class="st0" d="M22.2,29h1.1l2.9,8.1h0V29h0.9v10.8h-1l-3.1-8.7h0v8.7h-0.9V29z"/>
		<path class="st0" d="M31.6,37.6V29h1v8.4c0,1.1,0.7,1.6,1.5,1.6c1,0,1.4-0.7,1.4-1.6V29h1v8.5c0,1.5-1,2.5-2.5,2.5
			C32.6,40,31.6,39.2,31.6,37.6z"/>
	</g>
</g>
</svg>
