<?xml version="1.0" encoding="utf-8"?>
<!-- Generator: Adobe Illustrator 21.1.0, SVG Export Plug-In . SVG Version: 6.00 Build 0)  -->
<svg version="1.1" xmlns="http://www.w3.org/2000/svg" xmlns:xlink="http://www.w3.org/1999/xlink" x="0px" y="0px"
	 viewBox="0 0 40 40" style="enable-background:new 0 0 40 40;" xml:space="preserve">
<style type="text/css">
	.st0{fill:#FFFFFF;}
</style>
<g id="Layer_2">
</g>
<g id="Layer_1">
	<path id="Page-1" class="st0" d="M37.7,20.5c0-0.8-0.7-1.5-1.5-1.5H3.9c-0.9,0-1.5,0.7-1.5,1.5C2.3,21.4,3,22,3.9,22h32.2
		C37,22,37.7,21.4,37.7,20.5 M37.7,11c0-0.8-0.7-1.5-1.5-1.5H3.9C3,9.5,2.3,10.2,2.3,11s0.7,1.5,1.5,1.5h32.2
		C37,12.5,37.7,11.8,37.7,11 M36.1,3H3.9C3,3,2.3,2.3,2.3,1.5S3,0,3.9,0h32.2c0.9,0,1.5,0.7,1.5,1.5S37,3,36.1,3"/>
	<g>
		<path class="st0" d="M2.6,29.1h2.1l1.4,4.4h0l1.4-4.4h2v10.5H8v-7.9h0l-1.4,4.4H5.5l-1.4-4.4h0v7.9H2.6V29.1z"/>
		<path class="st0" d="M13.6,29.1h4.6v1.4h-3v3h2.4v1.4h-2.4v3.3h3v1.4h-4.6V29.1z"/>
		<path class="st0" d="M22.1,29.1h1.7l2.5,6.5h0v-6.5h1.5v10.5h-1.5l-2.7-7.2h0v7.2h-1.5V29.1z"/>
		<path class="st0" d="M31.9,37.2v-8.1h1.7v8c0,0.9,0.5,1.2,1.1,1.2c0.8,0,1.1-0.5,1.1-1.2v-8h1.6v8c0,1.7-1.2,2.7-2.8,2.7
			C33,39.8,31.9,39,31.9,37.2z"/>
	</g>
</g>
</svg>
