<svg height="41" viewBox="0 0 72 41" width="72" xmlns="http://www.w3.org/2000/svg"><path d="m27.878 0-4.655 6.157 1.489 3.054h-3.805l-2.229 3.108 1.579 3.064h-3.984l-2.397 3.107 1.601 3.077h-3.851l-2.407 3.191 1.512 2.997h-3.765l-2.31 3.069 1.355 3.084h-3.683l-2.328 3.081 1.361 3.09 35.161-.002v-3.093h33.79l1.565-3.069h-35.355v-3.086h29.215l1.563-3.067h-30.778v-3.1h24.411l1.563-3.069h-25.974v-3.097h19.703l1.564-3.068h-21.267v-3.103h14.984l1.564-3.067h-16.548v-3.097h10.287l1.564-3.07h-11.851v-3.091z" fill="#fefefe" fill-rule="evenodd"/></svg>