<?xml version="1.0" encoding="UTF-8"?>
<svg width="72px" height="41px" viewBox="0 0 72 41" version="1.1" xmlns="http://www.w3.org/2000/svg" xmlns:xlink="http://www.w3.org/1999/xlink">
    <!-- Generator: Sketch 44.1 (41455) - http://www.bohemiancoding.com/sketch -->
    <title>Untitled</title>
    <desc>Created with Sketch.</desc>
    <defs></defs>
    <g id="Page-1" stroke="none" stroke-width="1" fill="none" fill-rule="evenodd">
        <polygon id="MJH-logo-icon" fill="#FEFEFE" points="27.878 0 23.223 6.157 24.712 9.211 20.907 9.211 18.678 12.319 20.257 15.383 16.273 15.383 13.876 18.49 15.477 21.567 11.626 21.567 9.219 24.758 10.731 27.755 6.966 27.755 4.656 30.824 6.011 33.908 2.328 33.908 0 36.989 1.361 40.079 36.522 40.077 36.522 36.984 70.312 36.984 71.877 33.915 36.522 33.915 36.522 30.829 65.737 30.829 67.3 27.762 36.522 27.762 36.522 24.662 60.933 24.662 62.496 21.593 36.522 21.593 36.522 18.496 56.225 18.496 57.789 15.428 36.522 15.428 36.522 12.325 51.506 12.325 53.07 9.258 36.522 9.258 36.522 6.161 46.809 6.161 48.373 3.091 36.522 3.091 36.522 0"></polygon>
    </g>
</svg>