<svg height="50" viewBox="0 0 100 50" width="100" xmlns="http://www.w3.org/2000/svg" xmlns:xlink="http://www.w3.org/1999/xlink"><mask id="a" fill="#fff"><path d="m99.4652569 33.5870652v14.7825h-99.4652569v-48.3695652h99.4652569v33.5870652l.0002284-33.5869565h-83.3635333v33.5869565z" fill="#fff" fill-rule="evenodd"/></mask><g fill="#fff" fill-rule="evenodd"><path d="m93.5265758 9.89152174c-2.8549155 0-5.1388479-2.17391304-5.1388479-4.89130435 0-.65217391-.4556445-1.08695652-1.1419662-1.08695652h-74.6834482c-.6863217 0-1.1419662.43478261-1.1419662 1.08695652s.4556445 1.08695652 1.1419662 1.08695652h73.7698752c.4579284 3.04347826 2.9702541 5.43478259 6.1677595 5.86956519v24.4565218c0 .6521739.4556445 1.0869565 1.1419662 1.0869565.6840378 0 1.1419662-.4347826 1.1419662-1.0869565v-25.4347826c-.1153386-.652174-.5709831-1.08695656-1.2573048-1.08695656"/><path d="m98.2093225 5.97836957c-2.8549156 0-5.138848-2.17391305-5.138848-4.89130435 0-.65217392-.4567865-1.08695652-1.1419662-1.08695652h-74.6845901c-.6851798 0-1.1419662.4347826-1.1419662 1.08695652 0 .65217391.4567864 1.08695652 1.1419662 1.08695652h73.7710171c.4567865 3.04347826 2.9691122 5.43478261 6.1666176 5.86956522v24.45652174c0 .6521739.4567865 1.0869565 1.1419662 1.0869565s1.1419662-.4347826 1.1419662-1.0869565v-25.43478261c-.1141966-.54347826-.5709831-1.08695652-1.2561628-1.08695652" mask="url(#a)"/><path d="m87.3606435 40.3263043c-3.1975054.4336957-5.7098311 2.826087-6.1666176 5.8684783h-23.9812904v-.1076087-1.0869565c0-.4358696-.3425898-.8695652-.9135729-.8695652-.5709832 0-.913573.3260869-.913573.8695652v1.0869565.1076087h-46.93481125c-.45678649-3.0423913-2.96911215-5.4347826-6.16661754-5.8684783v-23.4782608c3.19750539-.4347826 5.70983105-2.826087 6.16661754-5.8695652h46.93481125v.2173913 1.0869565c0 .4347826.3425898.8695652.913573.8695652.5709831 0 .9135729-.326087.9135729-.8695652v-1.0869565-.2173913h23.9812904c.4567865 3.0434782 2.9691122 5.4347826 6.1666176 5.8695652zm1.1419662-25.5434782c-2.8549155 0-5.138848-2.1739131-5.138848-4.89130436 0-.65217391-.4567865-1.08695652-1.1419662-1.08695652h-74.79878674c-.68517973 0-1.14196621.43478261-1.14196621 1.08695652 0 2.71739126-2.28393242 4.89130436-5.13884795 4.89130436-.68517972 0-1.14196621.4347826-1.14196621 1.0869565v25.4336957c0 .6532608.45678649 1.0869565 1.14196621 1.0869565 2.85491553 0 5.13884795 2.173913 5.13884795 4.8913043 0 .6532609.45678648 1.0869566 1.14196621 1.0869566h74.79878674c.6851797 0 1.1419662-.4336957 1.1419662-1.0869566 0-2.7173913 2.2839325-4.8913043 5.138848-4.8913043.6851797 0 1.1419662-.4336957 1.1419662-1.0869565v-25.4336957c0-.6521739-.5709831-1.0869565-1.1419662-1.0869565z"/><path d="m56.2989342 32.9346739c-.4567865 0-.913573.326087-.913573.8695652v1.0869566c0 .4347826.3425899.8695652.913573.8695652s.9135729-.326087.9135729-.8695652v-1.0869566c-.1141966-.5434782-.4567865-.8695652-.9135729-.8695652"/><path d="m56.2989342 27.2828261c-.4567865 0-.913573.3260869-.913573.8695652v1.0869565c0 .4347826.3425899.8695652.913573.8695652s.9135729-.3260869.9135729-.8695652v-1.0869565c-.1141966-.5434783-.4567865-.8695652-.9135729-.8695652"/><path d="m56.2989342 38.5865217c-.4567865 0-.913573.327174-.913573.8706522v1.0869565c0 .4336957.3425899.8695653.913573.8695653s.9135729-.326087.9135729-.8695653v-1.0869565c-.1141966-.5434782-.4567865-.8706522-.9135729-.8706522"/><path d="m56.2989342 21.6304348c-.4567865 0-.913573.3260869-.913573.8695652v1.0869565c0 .4347826.3425899.8695652.913573.8695652s.9135729-.3260869.9135729-.8695652v-1.0869565c-.1141966-.5434783-.4567865-.8695652-.9135729-.8695652"/><path d="m56.2989342 15.9780435c-.4567865 0-.913573.3260869-.913573.8695652v1.0869565c0 .4347826.3425899.8695652.913573.8695652s.9135729-.3260869.9135729-.8695652v-1.0869565c-.1141966-.5434783-.4567865-.8695652-.9135729-.8695652"/><path d="m46.3635997 21.5216304h-35.9719356c-.3425898 0-.57098309.2173913-.57098309.5434783s.22839329.5434783.57098309.5434783h35.9719356c.3425899 0 .5709831-.2173913.5709831-.5434783s-.2283932-.5434783-.5709831-.5434783"/><path d="m10.3916641 29.4567391h26.1510262c.3425899 0 .5709831-.2173913.5709831-.5434782 0-.326087-.2283932-.5434783-.5709831-.5434783h-26.1510262c-.3425898 0-.57098309.2173913-.57098309.5434783 0 .3260869.22839329.5434782.57098309.5434782"/><path d="m42.1386674 35.3261957h-31.7466607c-.3425899 0-.5709831.2173913-.5709831.5434782 0 .326087.2283932.5434783.5709831.5434783h31.7466607c.3425898 0 .5709831-.2173913.5709831-.5434783 0-.3260869-.2283933-.5434782-.5709831-.5434782"/><path d="m55.3227731 28.4567391h22.9958159c.3012552 0 .502092-.2173913.502092-.5434782 0-.326087-.2008368-.5434783-.502092-.5434783h-22.9958159c-.3012553 0-.5020921.2173913-.5020921.5434783 0 .3260869.2008368.5434782.5020921.5434782" transform="matrix(0 1 -1 0 94.733942 -38.90742)"/><path d="m60.3227731 28.4567391h22.9958159c.3012552 0 .502092-.2173913.502092-.5434782 0-.326087-.2008368-.5434783-.502092-.5434783h-22.9958159c-.3012553 0-.5020921.2173913-.5020921.5434783 0 .3260869.2008368.5434782.5020921.5434782" transform="matrix(0 1 -1 0 99.733942 -43.90742)"/><path d="m65.3227731 28.4567391h22.9958159c.3012552 0 .502092-.2173913.502092-.5434782 0-.326087-.2008368-.5434783-.502092-.5434783h-22.9958159c-.3012553 0-.5020921.2173913-.5020921.5434783 0 .3260869.2008368.5434782.5020921.5434782" transform="matrix(0 1 -1 0 104.733942 -48.90742)"/></g></svg>