<svg viewBox="0 0 40 40" xmlns="http://www.w3.org/2000/svg"><path d="M37.7 20.5c0-.8-.7-1.5-1.5-1.5H3.9c-.9 0-1.5.7-1.5 1.5-.1.9.6 1.5 1.5 1.5h32.2c.9 0 1.6-.6 1.6-1.5m0-9.5c0-.8-.7-1.5-1.5-1.5H3.9c-.9 0-1.6.7-1.6 1.5s.7 1.5 1.5 1.5H36c1 0 1.7-.7 1.7-1.5m-1.6-8H3.9C3 3 2.3 2.3 2.3 1.5S3 0 3.9 0h32.2c.9 0 1.5.7 1.5 1.5S37 3 36.1 3M2.6 29.1h2.1l1.4 4.4 1.4-4.4h2v10.5H8v-7.9l-1.4 4.4H5.5l-1.4-4.4v7.9H2.6zm11 0h4.6v1.4h-3v3h2.4v1.4h-2.4v3.3h3v1.4h-4.6zm8.5 0h1.7l2.5 6.5v-6.5h1.5v10.5h-1.5l-2.7-7.2v7.2h-1.5zm9.8 8.1v-8.1h1.7v8c0 .9.5 1.2 1.1 1.2.8 0 1.1-.5 1.1-1.2v-8h1.6v8c0 1.7-1.2 2.7-2.8 2.7s-2.7-.8-2.7-2.6z" fill="#fff"/></svg>