<svg width="40" height="40" viewBox="0 0 40 40" xmlns="http://www.w3.org/2000/svg"><title>icon/icon-hamburger-white</title><path d="M40 34.278c0-.95-.785-1.722-1.751-1.722H1.752c-.967 0-1.752.771-1.752 1.722C0 35.228.785 36 1.752 36h36.497c.966 0 1.751-.772 1.751-1.722M40 20.5c0-.95-.785-1.722-1.751-1.722H1.752C.785 18.778 0 19.549 0 20.5c0 .95.785 1.722 1.752 1.722h36.497c.966 0 1.751-.771 1.751-1.722M38.25 8.444H1.752C.785 8.444 0 7.673 0 6.722 0 5.772.785 5 1.752 5h36.497C39.215 5 40 5.772 40 6.722s-.785 1.722-1.751 1.722" fill="#FFF" fill-rule="evenodd"/></svg>