<svg xmlns="http://www.w3.org/2000/svg" viewBox="0 0 40 40"><style>.st0{fill:#fff}</style><g id="Layer_1"><path id="Page-1" class="st0" d="M37.7 20.6c0-.8-.7-1.5-1.5-1.5H3.9c-.9 0-1.5.7-1.5 1.5s.7 1.5 1.5 1.5h32.2c.9 0 1.6-.7 1.6-1.5m0-9.6c0-.8-.7-1.5-1.5-1.5H3.9c-.9 0-1.6.7-1.6 1.5s.7 1.5 1.5 1.5H36c1 .1 1.7-.6 1.7-1.5m-1.6-8H3.9C3 3 2.3 2.4 2.3 1.5S3 0 3.9 0h32.2c.9 0 1.5.7 1.5 1.5S37 3 36.1 3"/><path class="st0" d="M3.5 29h1.2l1.8 4.8L8.3 29h1.2v10.8h-1V31l-1.7 4.5h-.7L4.5 31v8.8h-1V29zm10.4 0h4v.9h-3v3.8h2.4v.9h-2.4V39h3v.9h-4.1V29zm8.3 0h1.1l2.9 8.1V29h.9v10.8h-1L23 31.1v8.7h-.9V29zm9.4 8.6V29h1v8.4c0 1.1.7 1.6 1.5 1.6 1 0 1.4-.7 1.4-1.6V29h1v8.5c0 1.5-1 2.5-2.5 2.5-1.4 0-2.4-.8-2.4-2.4z"/></g></svg>