<svg width="72" height="41" viewBox="0 0 72 41" xmlns="http://www.w3.org/2000/svg"><title>Untitled</title><path fill="#FEFEFE" d="M27.878 0l-4.655 6.157 1.489 3.054h-3.805l-2.229 3.108 1.579 3.064h-3.984l-2.397 3.107 1.601 3.077h-3.851l-2.407 3.191 1.512 2.997H6.966l-2.31 3.069 1.355 3.084H2.328L0 36.989l1.361 3.09 35.161-.002v-3.093h33.79l1.565-3.069H36.522v-3.086h29.215l1.563-3.067H36.522v-3.1h24.411l1.563-3.069H36.522v-3.097h19.703l1.564-3.068H36.522v-3.103h14.984l1.564-3.067H36.522V6.161h10.287l1.564-3.07H36.522V0z" fill-rule="evenodd"/></svg>