<svg height="50" viewBox="0 0 100 50" width="100" xmlns="http://www.w3.org/2000/svg"><mask id="a" fill="#fff"><path d="M99.465 33.587V48.37H0V0h99.465v33.587V0H16.102v33.587z" fill-rule="evenodd"/></mask><g fill="#fff" fill-rule="evenodd"><path d="M93.527 9.892c-2.855 0-5.14-2.174-5.14-4.892 0-.652-.455-1.087-1.141-1.087H12.562c-.686 0-1.142.435-1.142 1.087s.456 1.087 1.142 1.087h73.77c.458 3.044 2.97 5.435 6.168 5.87v24.456c0 .652.456 1.087 1.142 1.087.684 0 1.142-.435 1.142-1.087V10.978c-.115-.652-.571-1.086-1.257-1.086"/><path d="M98.21 5.978c-2.856 0-5.14-2.174-5.14-4.89C93.07.434 92.614 0 91.93 0H17.244c-.685 0-1.142.435-1.142 1.087 0 .652.457 1.087 1.142 1.087h73.77c.458 3.043 2.97 5.435 6.168 5.87V32.5c0 .652.456 1.087 1.142 1.087s1.141-.435 1.141-1.087V7.065c-.114-.543-.57-1.087-1.256-1.087" mask="url(#a)"/><path d="M87.36 40.326c-3.197.434-5.71 2.826-6.166 5.869H57.213V45c0-.436-.343-.87-.914-.87-.57 0-.913.327-.913.87v1.195H8.45c-.457-3.043-2.97-5.435-6.167-5.869V16.848c3.198-.435 5.71-2.826 6.167-5.87h46.935v1.305c0 .435.342.87.913.87s.914-.327.914-.87v-1.305h23.981c.457 3.044 2.97 5.435 6.167 5.87zm1.143-25.543c-2.855 0-5.14-2.174-5.14-4.891 0-.653-.456-1.087-1.141-1.087H7.423c-.685 0-1.142.434-1.142 1.087 0 2.717-2.284 4.89-5.139 4.89-.685 0-1.142.436-1.142 1.088v25.433c0 .654.457 1.087 1.142 1.087 2.855 0 5.139 2.174 5.139 4.892 0 .653.457 1.087 1.142 1.087h74.799c.685 0 1.142-.434 1.142-1.087 0-2.718 2.284-4.892 5.139-4.892.685 0 1.142-.433 1.142-1.087V15.87c0-.652-.571-1.087-1.142-1.087z"/><path d="M56.299 32.935c-.457 0-.914.326-.914.87v1.086c0 .435.343.87.914.87s.914-.326.914-.87v-1.087c-.115-.543-.457-.87-.914-.87m0-5.651c-.457 0-.914.326-.914.87v1.086c0 .435.343.87.914.87s.914-.326.914-.87v-1.087c-.115-.543-.457-.87-.914-.87m0 11.305c-.457 0-.914.327-.914.87v1.087c0 .434.343.87.914.87s.914-.326.914-.87v-1.087c-.115-.543-.457-.87-.914-.87m0-16.957c-.457 0-.914.327-.914.87v1.087c0 .435.343.87.914.87s.914-.327.914-.87V22.5c-.115-.543-.457-.87-.914-.87m0-5.652c-.457 0-.914.326-.914.87v1.087c0 .434.343.87.914.87s.914-.327.914-.87v-1.087c-.115-.544-.457-.87-.914-.87m-9.935 5.544H10.392c-.343 0-.571.217-.571.543s.228.544.57.544h35.973c.342 0 .57-.218.57-.544s-.228-.543-.57-.543m-35.972 7.935h26.15c.343 0 .572-.218.572-.544 0-.326-.229-.543-.571-.543H10.392c-.343 0-.571.217-.571.543 0 .326.228.544.57.544m31.748 5.869H10.392c-.343 0-.571.218-.571.544 0 .326.228.543.571.543h31.747c.342 0 .57-.217.57-.543 0-.326-.228-.544-.57-.544m24.138-18.911v22.996c0 .301.218.502.544.502.326 0 .543-.2.543-.502V16.415c0-.3-.217-.502-.543-.502-.326 0-.544.201-.544.502m5 0v22.996c0 .301.218.502.544.502.326 0 .543-.2.543-.502V16.415c0-.3-.217-.502-.543-.502-.326 0-.544.201-.544.502m5 0v22.996c0 .301.218.502.544.502.326 0 .543-.2.543-.502V16.415c0-.3-.217-.502-.543-.502-.326 0-.544.201-.544.502"/></g></svg>